<svg width="147" height="37" viewBox="0 0 147 37" fill="none" xmlns="http://www.w3.org/2000/svg">
<g clip-path="url(#clip0_1_537)">
<g clip-path="url(#clip1_1_537)">
<path d="M9.33952 2.69286C9.30212 2.62071 9.27931 2.54191 9.27239 2.46095C9.26546 2.37998 9.27455 2.29845 9.29914 2.221C9.32374 2.14356 9.36335 2.07171 9.41571 2.00958C9.46808 1.94744 9.53218 1.89624 9.60434 1.85888C11.8186 0.732892 14.2783 0.175659 16.7616 0.237415C19.2449 0.299172 21.6738 0.977978 23.8294 2.21264C23.9001 2.25329 23.962 2.30755 24.0117 2.37227C24.0613 2.437 24.0976 2.51091 24.1186 2.58974C24.1395 2.66857 24.1446 2.75077 24.1336 2.83158C24.1226 2.9124 24.0957 2.99024 24.0544 3.06061L16.9334 15.2819C16.879 15.3755 16.801 15.4531 16.7072 15.5071C16.6134 15.561 16.507 15.5893 16.3988 15.5891H16.383C16.2722 15.5861 16.1642 15.5536 16.0702 15.4948C15.9761 15.4359 15.8996 15.353 15.8484 15.2547L9.33952 2.69286ZM16.0168 18.8485V18.8472L9.5076 6.28541C9.432 6.13998 9.30194 6.03036 9.1458 5.98049C8.98967 5.93062 8.82015 5.94455 8.67424 6.01923C6.93947 6.90873 5.39745 8.13208 4.13667 9.61905C2.87589 11.106 1.92119 12.8273 1.32735 14.6842C0.733515 16.5411 0.512238 18.497 0.67622 20.4396C0.840202 22.3822 1.38621 24.2733 2.28292 26.0044C3.17962 27.7354 4.40937 29.2724 5.90157 30.527C7.39377 31.7815 9.11904 32.7291 10.9784 33.3152C12.8377 33.9013 14.7945 34.1145 16.7364 33.9424C18.6783 33.7704 20.5671 33.2165 22.2945 32.3126C22.4395 32.2366 22.5487 32.1064 22.5981 31.9502C22.6475 31.7941 22.6331 31.6247 22.5582 31.4791L16.0168 18.8485ZM23.6468 30.7219L23.6964 30.821C23.7712 30.9671 23.9 31.0782 24.0556 31.1307C24.1194 31.1518 24.1867 31.1603 24.2537 31.1555C24.3517 31.1527 24.4484 31.1317 24.5386 31.0935C24.7641 30.9818 24.9833 30.8577 25.1951 30.7219C25.8251 30.3564 26.4256 29.9423 26.9911 29.4833H23.0027L23.6468 30.7219ZM22.3586 28.2447H28.3413C28.7259 27.8582 29.0819 27.4442 29.4065 27.006H21.7145L22.3586 28.2447ZM21.0828 25.7674H30.2859C30.5396 25.3697 30.7672 24.956 30.9672 24.5287H20.4387L21.0828 25.7674ZM19.7946 23.2901H31.5122C31.6765 22.8858 31.8172 22.4722 31.9333 22.0515H19.1505L19.7946 23.2901ZM18.5064 20.8128H32.243C32.3173 20.4041 32.3792 19.9953 32.4164 19.5742H17.8747L18.5064 20.8128ZM25.1456 5.15639C25.076 5.11316 24.9981 5.08527 24.9169 5.07459C24.8357 5.06391 24.7532 5.07068 24.6749 5.09446C24.5946 5.11278 24.5191 5.14756 24.453 5.1966C24.3869 5.24564 24.3317 5.30787 24.2909 5.37934L23.9565 5.94912H26.347C25.961 5.66358 25.5599 5.39896 25.1456 5.15639ZM27.8458 7.18776H23.2381L22.5196 8.4264H29.0225C28.656 7.98979 28.2631 7.57613 27.8458 7.18776ZM29.9515 9.66504H21.7888L21.0704 10.9037H30.7071C30.4836 10.4742 30.2311 10.0603 29.9515 9.66504ZM31.3016 12.1423H20.352L19.6336 13.381H31.7847C31.6474 12.9592 31.4861 12.5457 31.3016 12.1423ZM32.1315 14.6196H18.9028L18.1844 15.8582H32.3545C32.3053 15.4412 32.2308 15.0276 32.1315 14.6196ZM32.4783 17.0969H17.466L17.1687 17.6047C17.115 17.6942 17.0857 17.7961 17.0835 17.9004C17.0813 18.0046 17.1064 18.1077 17.1563 18.1993L17.2306 18.3355H32.5031C32.5155 18.2117 32.5155 18.0754 32.5155 17.9516C32.5155 17.6667 32.5031 17.3818 32.4783 17.0969Z" fill="white"/>
<path d="M9.05493 5.40696C8.82789 4.97673 8.29351 4.80993 7.87668 5.06072C4.57681 7.04608 2.11141 10.182 0.968003 13.8808C-0.262367 17.861 0.13876 22.1669 2.08314 25.8512C4.02752 29.5356 7.35587 32.2967 11.336 33.5271C15.0348 34.6705 19.015 34.4049 22.5162 32.801C22.9585 32.5985 23.1224 32.0632 22.8953 31.6329L15.9751 18.52L9.05493 5.40696Z" fill="white"/>
</g>
<path d="M54.6157 6.48692C56.3371 6.48692 57.8036 6.76321 59.015 7.31577C60.2264 7.86834 61.1508 8.66531 61.7884 9.70668C62.426 10.7481 62.7448 12.0126 62.7448 13.5003C62.7448 14.9879 62.426 16.2525 61.7884 17.2938C61.1508 18.3352 60.2264 19.1322 59.015 19.6847C57.8036 20.2373 56.3371 20.5136 54.6157 20.5136H50.4396V27.5269H44.9564V6.48692H54.6157ZM53.755 16.4012C54.9026 16.4012 55.7633 16.1674 56.3371 15.6999C56.9322 15.2111 57.2298 14.4779 57.2298 13.5003C57.2298 12.5226 56.9322 11.8001 56.3371 11.3325C55.7633 10.8437 54.9026 10.5993 53.755 10.5993H50.4396V16.4012H53.755ZM65.8679 27.5269V11.5875H70.6497L70.8729 15.0304C71.2767 13.8403 71.8717 12.9158 72.6581 12.257C73.4657 11.5982 74.4858 11.2687 75.7184 11.2687C76.1222 11.2687 76.4623 11.3006 76.7386 11.3644C77.0361 11.4281 77.2699 11.5131 77.4399 11.6194L76.898 16.0824C76.6854 15.9974 76.4092 15.9337 76.0691 15.8912C75.7503 15.8274 75.3572 15.7955 74.8896 15.7955C74.252 15.7955 73.657 15.9337 73.1044 16.21C72.5518 16.4862 72.1055 16.9007 71.7655 17.4532C71.4467 17.9845 71.2873 18.6646 71.2873 19.4935V27.5269H65.8679ZM87.1574 27.8457C85.3935 27.8457 83.8633 27.5163 82.5669 26.8575C81.2917 26.1986 80.3035 25.2529 79.6022 24.0203C78.9008 22.7876 78.5502 21.2999 78.5502 19.5572C78.5502 17.8145 78.9008 16.3268 79.6022 15.0942C80.3035 13.8615 81.2811 12.9158 82.535 12.257C83.8102 11.5982 85.266 11.2687 86.9024 11.2687C88.5814 11.2687 90.0053 11.5982 91.1742 12.257C92.3643 12.8946 93.2675 13.7872 93.8839 14.9348C94.5002 16.0612 94.8084 17.3576 94.8084 18.824C94.8084 19.2066 94.7977 19.5891 94.7765 19.9716C94.7552 20.3542 94.7233 20.673 94.6808 20.928H82.0568V18.027H92.2899L89.7077 19.0153C89.7077 17.7401 89.474 16.7625 89.0064 16.0824C88.5601 15.4024 87.8588 15.0623 86.9024 15.0623C86.2223 15.0623 85.6379 15.2217 85.1491 15.5405C84.6815 15.8593 84.3202 16.3587 84.0652 17.0388C83.8314 17.7189 83.7145 18.5902 83.7145 19.6529C83.7145 20.6942 83.8527 21.5443 84.129 22.2032C84.4052 22.8407 84.7984 23.3083 85.3085 23.6058C85.8185 23.8821 86.4349 24.0203 87.1574 24.0203C87.965 24.0203 88.6026 23.8609 89.0702 23.5421C89.559 23.2233 89.9203 22.777 90.154 22.2032L94.4896 23.6377C94.192 24.5516 93.6713 25.3273 92.9275 25.9649C92.2049 26.5812 91.3336 27.0487 90.3134 27.3675C89.3146 27.6863 88.2626 27.8457 87.1574 27.8457ZM104.535 27.8457C102.941 27.8457 101.453 27.5907 100.072 27.0806C98.7114 26.5493 97.585 25.7948 96.6924 24.8172L99.2427 21.8206C99.7741 22.5007 100.475 23.0745 101.347 23.5421C102.239 23.9884 103.228 24.2115 104.311 24.2115C104.97 24.2115 105.512 24.1159 105.937 23.9246C106.362 23.7333 106.575 23.4358 106.575 23.032C106.575 22.7345 106.469 22.5007 106.256 22.3307C106.044 22.1394 105.618 21.98 104.981 21.8525L102.749 21.4062C100.752 21.0024 99.3278 20.4073 98.4777 19.621C97.6488 18.8134 97.2344 17.7614 97.2344 16.465C97.2344 15.5936 97.5 14.7648 98.0313 13.9784C98.5627 13.1708 99.3809 12.5226 100.486 12.0338C101.591 11.5238 103.004 11.2687 104.726 11.2687C106.341 11.2687 107.765 11.5025 108.998 11.9701C110.23 12.4376 111.208 13.1177 111.93 14.0103L109.348 16.9432C108.838 16.3056 108.179 15.8062 107.372 15.4449C106.564 15.0836 105.757 14.9029 104.949 14.9029C104.439 14.9029 104.003 14.9561 103.642 15.0623C103.302 15.1473 103.047 15.2748 102.877 15.4449C102.707 15.6149 102.622 15.8274 102.622 16.0824C102.622 16.3587 102.749 16.6031 103.004 16.8156C103.281 17.0069 103.78 17.1769 104.503 17.3257L107.404 17.8995C109.04 18.1971 110.22 18.739 110.942 19.5253C111.665 20.3117 112.026 21.2574 112.026 22.3626C112.026 23.4039 111.75 24.339 111.197 25.1679C110.645 25.9967 109.816 26.6556 108.711 27.1444C107.606 27.6119 106.214 27.8457 104.535 27.8457ZM121.501 6.5188V21.8525C121.501 22.6176 121.681 23.1702 122.043 23.5102C122.425 23.829 122.946 23.9884 123.605 23.9884C124.115 23.9884 124.55 23.9352 124.912 23.829C125.294 23.7015 125.634 23.5208 125.932 23.287L126.506 26.6343C125.974 27.0169 125.305 27.3144 124.497 27.5269C123.69 27.7394 122.861 27.8457 122.011 27.8457C120.799 27.8457 119.747 27.6757 118.855 27.3356C117.983 26.9956 117.303 26.4537 116.814 25.7098C116.347 24.966 116.102 23.9777 116.081 22.7451V8.0171L121.501 6.5188ZM126.251 11.5875V15.4449H113.34V11.5875H126.251ZM136.341 11.2687C138.02 11.2687 139.486 11.5982 140.74 12.257C142.015 12.8946 143.004 13.8403 143.705 15.0942C144.427 16.3268 144.789 17.8145 144.789 19.5572C144.789 21.2999 144.427 22.7982 143.705 24.0521C143.004 25.2848 142.015 26.2305 140.74 26.8893C139.486 27.5269 138.02 27.8457 136.341 27.8457C134.704 27.8457 133.249 27.5269 131.974 26.8893C130.698 26.2305 129.7 25.2848 128.977 24.0521C128.276 22.7982 127.925 21.2999 127.925 19.5572C127.925 17.8145 128.276 16.3268 128.977 15.0942C129.7 13.8403 130.698 12.8946 131.974 12.257C133.249 11.5982 134.704 11.2687 136.341 11.2687ZM136.341 15.1261C135.725 15.1261 135.193 15.2748 134.747 15.5724C134.301 15.8699 133.961 16.3481 133.727 17.0069C133.493 17.6657 133.376 18.5158 133.376 19.5572C133.376 20.5986 133.493 21.4487 133.727 22.1075C133.961 22.7451 134.301 23.2233 134.747 23.5421C135.193 23.8396 135.725 23.9884 136.341 23.9884C136.978 23.9884 137.52 23.8396 137.967 23.5421C138.413 23.2233 138.753 22.7451 138.987 22.1075C139.221 21.4487 139.338 20.5986 139.338 19.5572C139.338 18.5158 139.221 17.6657 138.987 17.0069C138.753 16.3481 138.413 15.8699 137.967 15.5724C137.52 15.2748 136.978 15.1261 136.341 15.1261Z" fill="white"/>
</g>
<defs>
<clipPath id="clip0_1_537">
<rect width="146.513" height="41.2903" fill="white" transform="translate(0.179626 -4.47308)"/>
</clipPath>
<clipPath id="clip1_1_537">
<rect width="32.745" height="34.8351" fill="white" transform="translate(-0.0115356 -0.319275)"/>
</clipPath>
</defs>
</svg>
